<svg height="681pt" viewBox="-21 -21 681 681.37324" width="681pt" xmlns="http://www.w3.org/2000/svg"><path d="m198.839844 234.121094-13.230469-13.238282 13.230469-13.230468 13.238281 13.230468zm22.058594-22.058594-13.230469-13.230469 13.230469-13.238281 13.230468 13.238281zm0 0"/><path d="m578.457031 466.878906-38.351562-5.863281-6.460938-42.117187-42.121093-6.464844-6.464844-42.121094-42.121094-6.464844-5.878906-38.367187-67.117188-67.109375 29.992188-111.925782-61.039063-61.050781-13.234375 13.230469 53.402344 53.410156-29.996094 111.933594 70.425782 70.410156 7.027343 45.886719 42.125 6.460937 6.464844 42.121094 42.121094 6.464844 6.460937 42.125 45.871094 7.015625c23.519531 23.523437 41.070312 41.078125 48.4375 48.445313l-15.1875 56.671874-68.867188-68.867187-13.230468 13.230469 68.867187 68.871094-56.667969 15.191406-268.929687-268.941406-111.933594 29.996093-131.066406-131.070312 47.96875-179.039063 179.042969-47.984375 53.398437 53.414063 13.230469-13.230469-61.035156-61.0585938-199.917969 53.5820308-53.566406 199.914063 146.347656 146.347656 111.933594-29.996093 268.929687 268.941406 87.984375-23.582032 23.574219-87.984374c-30.523438-30.519532-50.492188-50.496094-60.417969-60.425782zm0 0"/><path d="m105.960938 105.953125c-18.214844 18.210937-18.21875 47.699219 0 65.917969 18.175781 18.171875 47.746093 18.171875 65.921874 0 18.171876-18.171875 18.171876-47.746094 0-65.917969-18.175781-18.175781-47.746093-18.175781-65.921874 0zm52.6875 13.230469c10.878906 10.878906 10.878906 28.578125 0 39.457031-10.878907 10.871094-28.574219 10.871094-39.453126 0-10.894531-10.898437-10.90625-28.550781 0-39.453125 10.875-10.871094 28.574219-10.882812 39.453126-.003906zm0 0"/><path d="m338.242188 351.453125 13.234374-13.238281 158.191407 158.191406-13.234375 13.238281zm0 0"/></svg>