<svg height="682.66666pt" viewBox="-21 -21 682.66666 682.66666" width="682.66666pt" xmlns="http://www.w3.org/2000/svg"><path d="m578.394531 96.957031-13.257812-13.253906 13.257812-13.257813 13.253907 13.257813zm-22.097656-22.09375-13.253906-13.257812 13.253906-13.253907 13.257813 13.253907zm0 0"/><path d="m567.40625 0h-34.125l-56.101562 56.101562 46.726562 46.730469-422.570312 422.566407-51.164063-51.164063-50.171875 165.765625c225.367188-68.207031 143.394531-43.398438 165.765625-50.171875l-51.171875-51.164063 422.570312-422.570312 46.734376 46.726562 56.101562-56.101562v-34.125zm-524.414062 562.671875 34.335937 34.335937-49.242187 14.902344zm54.6875 28.179687-48.53125-48.53125 9.898437-32.695312 71.328125 71.328125zm523.570312-491.902343-37.359375 37.359375-80.199219-80.207032 37.355469-37.355468h18.597656l61.605469 61.609375zm0 0"/><path d="m165.761719 554.433594 388.125-388.125 13.257812 13.257812-388.125 388.125zm0 0"/><path d="m72.304688 460.972656 388.125-388.125 13.257812 13.253906-388.132812 388.125zm0 0"/></svg>